<svg xmlns="http://www.w3.org/2000/svg" viewBox="0 0 1000 1000" width="1000" height="1000" role="img"><rect width="1000" height="1000" fill="#ffffff"/><g data-sign="rashi.ARIES" data-house="10"><path d="M333.33,0L666.67,0L666.67,333.33L333.33,333.33Z" fill="#ffffff" stroke="#1f1f1f" stroke-width="2"/><text x="500" y="92.43" font-size="26" font-family="sans-serif" fill="#1f1f1f" text-anchor="middle">१</text></g><g data-sign="rashi.TAURUS" data-house="11"><path d="M0,0L333.33,0L333.33,333.33Z" fill="#ffffff" stroke="#1f1f1f" stroke-width="2"/><text x="277.78" y="64.66" font-size="26" font-family="sans-serif" fill="#1f1f1f" text-anchor="middle">२</text><text x="222.22" y="102.11" font-size="36" font-family="sans-serif" fill="#1f1f1f" text-anchor="middle" data-body="graha.MARS">मं</text><text x="222.22" y="145.31" font-size="36" font-family="sans-serif" fill="#1f1f1f" text-anchor="middle" data-body="graha.JUPITER">गु</text></g><g data-sign="rashi.GEMINI" data-house="12"><path d="M0,0L333.33,333.33L0,333.33Z" fill="#ffffff" stroke="#1f1f1f" stroke-width="2"/><text x="55.56" y="286.88" font-size="26" font-family="sans-serif" fill="#1f1f1f" text-anchor="middle">३</text></g><g data-sign="rashi.CANCER" data-house="1" data-lagna="true"><path d="M0,333.33L333.33,333.33L333.33,666.67L0,666.67Z" fill="#fff3dc" stroke="#1f1f1f" stroke-width="2"/><text x="83.33" y="509.1" font-size="26" font-family="sans-serif" fill="#b3261e" text-anchor="middle">४</text><text x="166.67" y="491" font-size="36" font-family="sans-serif" fill="#b3261e" text-anchor="middle" data-body="point.LAGNA">ल</text><text x="166.67" y="534.2" font-size="36" font-family="sans-serif" fill="#1f1f1f" text-anchor="middle" data-body="graha.SUN">सू</text></g><g data-sign="rashi.LEO" data-house="2"><path d="M0,666.67L333.33,666.67L0,1000Z" fill="#ffffff" stroke="#1f1f1f" stroke-width="2"/><text x="55.56" y="731.32" font-size="26" font-family="sans-serif" fill="#1f1f1f" text-anchor="middle">५</text><text x="111.11" y="769.45" font-size="33.3" font-family="sans-serif" fill="#1f1f1f" text-anchor="middle" data-body="graha.MERCURY">बु(R)</text><text x="111.11" y="809.41" font-size="33.3" font-family="sans-serif" fill="#1f1f1f" text-anchor="middle" data-body="graha.VENUS">शु</text></g><g data-sign="rashi.VIRGO" data-house="3"><path d="M333.33,666.67L333.33,1000L0,1000Z" fill="#ffffff" stroke="#1f1f1f" stroke-width="2"/><text x="277.78" y="953.54" font-size="26" font-family="sans-serif" fill="#1f1f1f" text-anchor="middle">६</text><text x="222.22" y="901.49" font-size="36" font-family="sans-serif" fill="#1f1f1f" text-anchor="middle" data-body="graha.KETU">के</text></g><g data-sign="rashi.LIBRA" data-house="4"><path d="M333.33,666.67L666.67,666.67L666.67,1000L333.33,1000Z" fill="#ffffff" stroke="#1f1f1f" stroke-width="2"/><text x="500" y="925.77" font-size="26" font-family="sans-serif" fill="#1f1f1f" text-anchor="middle">७</text></g><g data-sign="rashi.SCORPIO" data-house="5"><path d="M666.67,666.67L1000,1000L666.67,1000Z" fill="#ffffff" stroke="#1f1f1f" stroke-width="2"/><text x="722.22" y="953.54" font-size="26" font-family="sans-serif" fill="#1f1f1f" text-anchor="middle">८</text><text x="777.78" y="901.49" font-size="36" font-family="sans-serif" fill="#1f1f1f" text-anchor="middle" data-body="graha.MOON">च</text></g><g data-sign="rashi.SAGITTARIUS" data-house="6"><path d="M666.67,666.67L1000,666.67L1000,1000Z" fill="#ffffff" stroke="#1f1f1f" stroke-width="2"/><text x="944.44" y="731.32" font-size="26" font-family="sans-serif" fill="#1f1f1f" text-anchor="middle">९</text></g><g data-sign="rashi.CAPRICORN" data-house="7"><path d="M666.67,333.33L1000,333.33L1000,666.67L666.67,666.67Z" fill="#ffffff" stroke="#1f1f1f" stroke-width="2"/><text x="916.67" y="509.1" font-size="26" font-family="sans-serif" fill="#1f1f1f" text-anchor="middle">१०</text></g><g data-sign="rashi.AQUARIUS" data-house="8"><path d="M666.67,333.33L1000,0L1000,333.33Z" fill="#ffffff" stroke="#1f1f1f" stroke-width="2"/><text x="944.44" y="286.88" font-size="26" font-family="sans-serif" fill="#1f1f1f" text-anchor="middle">११</text><text x="888.89" y="234.82" font-size="36" font-family="sans-serif" fill="#1f1f1f" text-anchor="middle" data-body="graha.SATURN">शं(R)</text></g><g data-sign="rashi.PISCES" data-house="9"><path d="M666.67,0L1000,0L666.67,333.33Z" fill="#ffffff" stroke="#1f1f1f" stroke-width="2"/><text x="722.22" y="64.66" font-size="26" font-family="sans-serif" fill="#1f1f1f" text-anchor="middle">१२</text><text x="777.78" y="123.71" font-size="36" font-family="sans-serif" fill="#1f1f1f" text-anchor="middle" data-body="graha.RAHU">रा</text></g><path d="M0,0L1000,0L1000,1000L0,1000Z" fill="none" stroke="#1f1f1f" stroke-width="2"/></svg>